<svg width="890" height="599" viewBox="0 0 890 599" fill="none" xmlns="http://www.w3.org/2000/svg">
<path fill-rule="evenodd" clip-rule="evenodd" d="M264.605 97.9269C304.742 52.0155 364.91 30.6708 421.215 23.2217C449.25 19.5127 475.974 19.302 498.166 21.0944C520.593 22.9056 537.636 26.7016 546.656 30.5449L547.201 30.777L547.769 30.9432C587.601 42.5911 614.172 55.8263 636.109 73.8663C657.844 91.7404 675.613 114.793 697.203 147.304C714.66 227.853 721.304 286.496 712.175 336.09C703.082 385.49 678.111 426.986 629.719 472.566L642.078 488.196C733.848 427.735 774.521 405.916 826.994 389.91L827.42 389.78L827.832 389.613C843.306 383.341 852.458 383.24 857.589 384.717C862.186 386.041 864.94 389.037 866.774 393.438C868.737 398.149 869.344 403.936 869.315 409.022C869.303 411.195 869.176 413.095 869.041 414.524C868.852 414.736 868.65 414.962 868.436 415.202C868.247 415.413 868.049 415.634 867.842 415.866L867.409 416.349C865.021 419.015 861.534 422.881 857.156 427.663C848.398 437.231 836.086 450.452 821.875 465.061C793.33 494.407 757.57 528.889 727.669 550.776L739.482 566.914C770.827 543.971 807.568 508.453 836.211 479.006C850.595 464.219 863.049 450.846 871.908 441.168C876.339 436.328 879.874 432.408 882.306 429.695C883.521 428.338 884.461 427.282 885.099 426.563C885.274 426.366 885.427 426.194 885.556 426.048L885.827 425.741L886.015 425.528L886.064 425.473L886.077 425.458L886.081 425.454C886.082 425.452 886.083 425.452 878.576 418.845L886.083 425.452L887.946 423.334L888.429 420.555L878.576 418.845C888.429 420.555 888.429 420.55 888.43 420.545L888.432 420.534L888.437 420.508L888.449 420.436C888.458 420.381 888.47 420.309 888.483 420.223C888.491 420.177 888.499 420.126 888.507 420.072L888.526 419.945L888.538 419.865C888.554 419.762 888.57 419.648 888.588 419.524C888.67 418.943 888.775 418.133 888.879 417.136C889.087 415.148 889.297 412.372 889.315 409.135C889.35 402.834 888.672 393.995 885.236 385.747C881.671 377.188 874.913 368.893 863.122 365.498C851.955 362.283 837.978 363.984 820.738 370.909C779.48 383.533 745.203 399.702 692.124 432.363C712.806 403.238 725.664 373.287 731.845 339.71C741.814 285.549 734.172 223.036 716.347 141.216L715.948 139.388L714.915 137.827C692.639 104.163 673.307 78.5625 648.812 58.4188C624.281 38.2457 595.169 24.0169 553.93 11.9075C541.971 6.94392 522.7 3.01074 499.776 1.15927C476.253 -0.740623 448.107 -0.510341 418.592 3.39446C360.24 11.1143 295.137 33.4076 250.56 83.6141C245.458 86.917 239.832 92.2821 234.194 98.8843C227.843 106.321 220.978 115.918 214.248 127.371C200.787 150.277 187.651 180.971 180.288 217.326C167.826 278.857 171.977 356.316 218.505 439.105C172.274 407.916 130.212 389.769 60.722 370.702L59.8176 370.453L58.8828 370.378C46.8206 369.401 36.5052 369.357 28.0823 370.807C19.631 372.261 11.934 375.423 6.63008 381.848C1.30461 388.299 -0.233458 396.371 0.0277157 404.647C0.28701 412.864 2.34857 422.421 5.47584 433.145L6.24189 435.772L8.23873 437.643C82.2539 506.99 127.792 537.914 214.253 579.363L222.899 561.328C139.105 521.157 95.2878 491.582 23.9316 424.936C21.4467 416.018 20.1814 409.201 20.0178 404.017C19.8404 398.397 20.988 395.871 22.0538 394.58C23.1412 393.263 25.5411 391.538 31.4741 390.517C37.2734 389.519 45.3394 389.39 56.3414 390.239C143.956 414.353 185.482 436.51 250.913 487.72L265.081 473.851C193.731 378.566 186.169 289.042 199.89 221.296C206.779 187.283 219.06 158.657 231.491 137.504C237.706 126.926 243.907 118.308 249.403 111.873C255.047 105.263 259.49 101.498 262.075 100.006L263.512 99.1761L264.605 97.9269ZM320.076 226.845C333.883 226.845 345.076 217.219 345.076 205.345C345.076 193.471 333.883 183.845 320.076 183.845C306.269 183.845 295.076 193.471 295.076 205.345C295.076 217.219 306.269 226.845 320.076 226.845ZM551.076 205.345C551.076 217.219 539.883 226.845 526.076 226.845C512.269 226.845 501.076 217.219 501.076 205.345C501.076 193.471 512.269 183.845 526.076 183.845C539.883 183.845 551.076 193.471 551.076 205.345ZM383.557 281.986C395.098 306.35 411.061 319.911 428.125 319.531C445.205 319.152 459.943 304.891 469.218 281.702L459.934 277.988C451.209 299.799 438.946 309.288 427.902 309.534C416.841 309.78 403.554 300.841 392.595 277.705L383.557 281.986ZM428.361 462.476C417.445 458.635 406.59 457.278 399.693 459.23C384.156 463.628 371.251 475.264 365.214 488.01C359.253 500.594 360.399 512.801 370.09 521.114C383.684 532.774 398.171 541.72 414.297 551.68L414.299 551.68L414.299 551.681C418.069 554.009 421.928 556.392 425.887 558.879C427.81 560.087 430.941 561.706 435.008 563.746C435.322 563.903 435.64 564.063 435.963 564.224C436.447 564.466 436.94 564.712 437.441 564.963C440.776 566.628 444.45 568.462 448.014 570.348C452.459 572.7 456.983 575.26 460.751 577.87C464.211 580.268 468.208 583.478 470.232 587.417C472.125 591.101 470.673 595.623 466.989 597.516C463.305 599.409 458.784 597.957 456.89 594.273L456.888 594.269L456.878 594.252C456.867 594.235 456.85 594.208 456.825 594.173C456.785 594.116 456.727 594.036 456.643 593.932C456.444 593.687 456.149 593.366 455.733 592.973C454.888 592.176 453.718 591.246 452.208 590.199C449.179 588.101 445.277 585.869 441 583.607C437.612 581.814 434.146 580.083 430.829 578.427L430.817 578.421L429.996 578.011L429.624 577.825L429.143 577.584L428.678 577.352L428.284 577.154C424.37 575.191 420.557 573.244 417.908 571.581C414.203 569.253 410.516 566.978 406.856 564.719L406.829 564.703L406.799 564.684C390.589 554.681 374.892 544.994 360.324 532.499C344.024 518.518 343.729 498.328 351.657 481.589C359.509 465.012 375.82 450.398 395.608 444.797C406.961 441.584 421.401 444.125 433.34 448.327C439.486 450.49 445.373 453.232 450.377 456.271C455.265 459.24 459.802 462.787 462.749 466.749C463.451 467.693 464.009 468.701 464.455 469.726C467.678 466.468 471.516 463.766 475.621 461.571C483.999 457.091 494.113 454.361 504.379 453.179C524.502 450.864 547.788 454.272 561.786 465.343C570.604 472.317 575.315 483.427 575.56 492.778C575.824 502.883 572.831 509.913 567.965 516.038C565.698 518.892 563.063 521.504 560.487 523.997C560.037 524.433 559.586 524.866 559.135 525.301L559.133 525.303L559.127 525.309L559.126 525.31L559.126 525.31C556.916 527.439 554.685 529.589 552.348 532.07C545.901 538.913 539.965 546.274 533.97 553.901C532.901 555.26 531.829 556.63 530.752 558.007C525.84 564.285 520.813 570.708 515.532 576.875C514.975 577.525 514.175 578.689 512.982 580.549C512.724 580.951 512.45 581.382 512.163 581.833C511.247 583.274 510.199 584.921 509.13 586.49C507.717 588.564 506.055 590.823 504.199 592.777C502.423 594.647 499.95 596.8 496.798 597.916C492.893 599.297 488.608 597.252 487.226 593.347C485.845 589.442 487.89 585.156 491.795 583.775C491.776 583.781 491.776 583.781 491.797 583.769L491.798 583.769C491.894 583.712 492.407 583.411 493.323 582.447C494.361 581.354 495.495 579.862 496.733 578.044C497.657 576.689 498.521 575.331 499.409 573.936C499.721 573.445 500.035 572.951 500.357 572.45C501.48 570.699 502.806 568.673 504.139 567.117C509.184 561.227 513.962 555.122 518.865 548.857L518.925 548.78C519.517 548.024 520.11 547.265 520.706 546.505C521.195 545.882 521.685 545.257 522.177 544.631C528.209 536.957 534.493 529.147 541.43 521.784C544.043 519.011 546.576 516.571 548.793 514.435L548.804 514.425C549.233 514.012 549.651 513.609 550.055 513.219C552.63 510.726 554.626 508.715 556.22 506.708C559.077 503.111 560.73 499.471 560.565 493.171C560.427 487.896 557.529 481.1 552.482 477.108C542.908 469.537 524.322 465.984 506.094 468.081C497.184 469.106 489.002 471.425 482.694 474.799C476.349 478.192 472.513 482.296 470.974 486.652C470.342 488.444 470.218 489.825 470.077 491.4C470.002 492.25 469.921 493.155 469.752 494.212C469.707 494.499 469.587 495.226 469.294 496.029C469.152 496.419 468.824 497.239 468.163 498.11C467.501 498.982 465.999 500.546 463.45 501.005C460.818 501.479 458.782 500.474 457.742 499.747C456.756 499.057 456.158 498.292 455.892 497.929C455.341 497.175 455.003 496.437 454.857 496.11C454.268 494.789 453.538 492.493 452.649 489.664C452.047 487.747 451.81 485.767 451.673 484.208C451.601 483.385 451.529 482.243 451.467 481.25L451.467 481.246C451.447 480.931 451.428 480.631 451.41 480.361C451.394 480.105 451.378 479.876 451.364 479.686C451.26 478.297 451.132 477.278 450.95 476.499C450.819 475.937 450.704 475.703 450.684 475.663C449.375 473.921 446.695 471.584 442.591 469.092C438.573 466.651 433.643 464.335 428.361 462.476ZM486.723 505.845C485.404 505.845 483.942 506.119 482.595 507.003C481.293 507.858 480.61 508.961 480.288 509.525C480.236 509.616 480.19 509.697 480.149 509.768L480.045 509.947C474.201 513.683 472.607 521.14 476.645 526.935C477.922 528.768 479.403 530.875 481.545 532.246C483.936 533.777 486.5 534.037 489.028 534.037C494.747 534.037 499.642 539.333 499.033 547.472C498.443 547.758 497.458 548.066 496.068 548.311C493.044 548.845 489.611 548.845 487.918 548.845H487.897H487.875H487.854H487.833H487.812H487.791H487.77H487.748H487.727H487.706H487.685H487.664H487.642H487.621H487.6H487.579H487.558H487.537H487.515H487.494H487.473H487.452H487.431H487.41H487.388H487.367H487.346H487.325H487.304H487.282H487.261H487.24H487.219H487.198H487.177H487.155H487.134H487.113H487.092H487.071H487.05H487.028H487.007H486.986H486.965H486.944H486.922H486.901H486.88H486.859H486.838H486.817H486.795H486.774H486.753H486.732H486.711H486.69H486.668H486.647H486.626H486.605H486.584H486.563H486.541H486.52H486.499H486.478H486.457H486.435H486.414H486.393H486.372H486.351H486.33H486.308H486.287H486.266H486.245H486.224H486.203H486.181H486.16H486.139H486.118H486.097H486.075H486.054H486.033H486.012H485.991H485.97H485.948H485.927H485.906H485.885H485.864H485.843H485.821H485.8H485.779H485.758H485.737H485.715H485.694H485.673H485.652H485.631H485.61H485.588H485.567H485.546H485.525H485.504H485.483H485.461H485.44H485.419H485.398H485.377H485.356H485.334H485.313H485.292H485.271H485.25H485.228H485.207H485.186H485.165H485.144H485.123H485.101H485.08H485.059H485.038H485.017H484.996H484.974H484.953H484.932H484.911H484.89H484.869H484.847H484.826H484.805H484.784H484.763H484.741H484.72H484.699H484.678H484.657H484.636H484.614H484.593H484.572H484.551H484.53H484.509H484.487H484.466H484.445H484.424H484.403H484.381H484.36H484.339H484.318H484.297H484.276H484.254H484.233H484.212H484.191H484.17H484.149H484.127H484.106H484.085H484.064H484.043H484.021H484H483.979H483.958H483.937H483.916H483.894H483.873H483.852H483.831H483.81H483.789H483.767H483.746H483.725H483.704H483.683H483.662H483.64H483.619H483.598H483.577H483.556H483.534H483.513H483.492H483.471H483.45H483.429H483.407H483.386H483.365H483.344H483.323H483.302H483.28H483.259H483.238H483.217H483.196H483.174H483.153H483.132H483.111H483.09H483.069H483.047H483.026H483.005H482.984H482.963H482.942H482.92H482.899H482.878H482.857H482.836H482.814H482.793H482.772H482.751H482.73H482.709H482.687H482.666H482.645H482.624H482.603H482.582H482.56H482.539H482.518H482.497H482.476H482.455H482.433H482.412H482.391H482.37H482.349H482.327H482.306H482.285H482.264H482.243H482.222H482.2H482.179H482.158H482.137H482.116H482.095H482.073H482.052H482.031H482.01H481.989H481.967H481.946H481.925H481.904H481.883H481.862H481.84H481.819H481.798H481.777H481.756H481.735H481.713H481.692H481.671H481.65H481.629H481.607H481.586H481.565H481.544H481.523H481.502H481.48H481.459H481.438H481.417H481.396H481.375H481.353H481.332H481.311H481.29H481.269H481.248H481.226H481.205H481.184H481.163H481.142H481.12H481.099H481.078H481.057H481.036H481.015H480.993H480.972H480.951H480.93H480.909H480.888H480.866H480.845H480.824H480.803H480.782H480.76H480.739H480.718H480.697H480.676H480.655H480.633H480.612H480.591H480.57H480.549H480.528H480.506H480.485H480.464H480.443H480.422H480.401H480.379H480.358H480.337H480.316H480.295H480.273H480.252H480.231H480.21H480.189H480.168H480.146H480.125H480.104H480.083H480.062H480.041H480.019H479.998H479.977H479.956H479.935H479.913H479.892H479.871H479.85H479.829H479.808H479.786H479.765H479.744H479.723H479.702H479.681H479.659H479.638H479.617H479.596H479.575H479.553H479.532H479.511H479.49H479.469H479.448H479.426H479.405H479.384H479.363H479.342H479.321H479.299H479.278H479.257H479.236H479.215H479.194H479.172H479.151H479.13H479.109H479.088H479.066H479.045H479.024H479.003H478.982H478.961H478.939H478.918H478.897H478.876H478.855H478.834H478.812H478.791H478.77H478.749H478.728H478.706H478.685H478.664H478.643H478.622H478.601H478.579H478.558H478.537H478.516H478.495H478.474H478.452H478.431H478.41H478.389H478.368H478.346H478.325H478.304H478.283H478.262H478.241H478.219H478.198H478.177H478.156H478.135H478.114H478.092H478.071H478.05H478.029H478.008H477.987H477.965H477.944H477.923H477.902H477.881H477.859H477.838H477.817H477.796H477.775H477.754H477.732H477.711H477.69H477.669H477.648H477.627H477.605H477.584H477.563H477.542H477.521H477.499H477.478H477.457H477.436H477.415H477.394H477.372H477.351H477.33H477.309H477.288H477.267H477.245H477.224H477.203H477.182H477.161H477.14H477.118H477.097H477.076C474.315 548.845 472.076 551.084 472.076 553.845C472.076 556.607 474.315 558.845 477.076 558.845H477.097H477.118H477.14H477.161H477.182H477.203H477.224H477.245H477.267H477.288H477.309H477.33H477.351H477.372H477.394H477.415H477.436H477.457H477.478H477.499H477.521H477.542H477.563H477.584H477.605H477.627H477.648H477.669H477.69H477.711H477.732H477.754H477.775H477.796H477.817H477.838H477.859H477.881H477.902H477.923H477.944H477.965H477.987H478.008H478.029H478.05H478.071H478.092H478.114H478.135H478.156H478.177H478.198H478.219H478.241H478.262H478.283H478.304H478.325H478.346H478.368H478.389H478.41H478.431H478.452H478.474H478.495H478.516H478.537H478.558H478.579H478.601H478.622H478.643H478.664H478.685H478.706H478.728H478.749H478.77H478.791H478.812H478.834H478.855H478.876H478.897H478.918H478.939H478.961H478.982H479.003H479.024H479.045H479.066H479.088H479.109H479.13H479.151H479.172H479.194H479.215H479.236H479.257H479.278H479.299H479.321H479.342H479.363H479.384H479.405H479.426H479.448H479.469H479.49H479.511H479.532H479.553H479.575H479.596H479.617H479.638H479.659H479.681H479.702H479.723H479.744H479.765H479.786H479.808H479.829H479.85H479.871H479.892H479.913H479.935H479.956H479.977H479.998H480.019H480.041H480.062H480.083H480.104H480.125H480.146H480.168H480.189H480.21H480.231H480.252H480.273H480.295H480.316H480.337H480.358H480.379H480.401H480.422H480.443H480.464H480.485H480.506H480.528H480.549H480.57H480.591H480.612H480.633H480.655H480.676H480.697H480.718H480.739H480.76H480.782H480.803H480.824H480.845H480.866H480.888H480.909H480.93H480.951H480.972H480.993H481.015H481.036H481.057H481.078H481.099H481.12H481.142H481.163H481.184H481.205H481.226H481.248H481.269H481.29H481.311H481.332H481.353H481.375H481.396H481.417H481.438H481.459H481.48H481.502H481.523H481.544H481.565H481.586H481.607H481.629H481.65H481.671H481.692H481.713H481.735H481.756H481.777H481.798H481.819H481.84H481.862H481.883H481.904H481.925H481.946H481.967H481.989H482.01H482.031H482.052H482.073H482.095H482.116H482.137H482.158H482.179H482.2H482.222H482.243H482.264H482.285H482.306H482.327H482.349H482.37H482.391H482.412H482.433H482.455H482.476H482.497H482.518H482.539H482.56H482.582H482.603H482.624H482.645H482.666H482.687H482.709H482.73H482.751H482.772H482.793H482.814H482.836H482.857H482.878H482.899H482.92H482.942H482.963H482.984H483.005H483.026H483.047H483.069H483.09H483.111H483.132H483.153H483.174H483.196H483.217H483.238H483.259H483.28H483.302H483.323H483.344H483.365H483.386H483.407H483.429H483.45H483.471H483.492H483.513H483.534H483.556H483.577H483.598H483.619H483.64H483.662H483.683H483.704H483.725H483.746H483.767H483.789H483.81H483.831H483.852H483.873H483.894H483.916H483.937H483.958H483.979H484H484.021H484.043H484.064H484.085H484.106H484.127H484.149H484.17H484.191H484.212H484.233H484.254H484.276H484.297H484.318H484.339H484.36H484.381H484.403H484.424H484.445H484.466H484.487H484.509H484.53H484.551H484.572H484.593H484.614H484.636H484.657H484.678H484.699H484.72H484.741H484.763H484.784H484.805H484.826H484.847H484.869H484.89H484.911H484.932H484.953H484.974H484.996H485.017H485.038H485.059H485.08H485.101H485.123H485.144H485.165H485.186H485.207H485.228H485.25H485.271H485.292H485.313H485.334H485.356H485.377H485.398H485.419H485.44H485.461H485.483H485.504H485.525H485.546H485.567H485.588H485.61H485.631H485.652H485.673H485.694H485.715H485.737H485.758H485.779H485.8H485.821H485.843H485.864H485.885H485.906H485.927H485.948H485.97H485.991H486.012H486.033H486.054H486.075H486.097H486.118H486.139H486.16H486.181H486.203H486.224H486.245H486.266H486.287H486.308H486.33H486.351H486.372H486.393H486.414H486.435H486.457H486.478H486.499H486.52H486.541H486.563H486.584H486.605H486.626H486.647H486.668H486.69H486.711H486.732H486.753H486.774H486.795H486.817H486.838H486.859H486.88H486.901H486.922H486.944H486.965H486.986H487.007H487.028H487.05H487.071H487.092H487.113H487.134H487.155H487.177H487.198H487.219H487.24H487.261H487.282H487.304H487.325H487.346H487.367H487.388H487.41H487.431H487.452H487.473H487.494H487.515H487.537H487.558H487.579H487.6H487.621H487.642H487.664H487.685H487.706H487.727H487.748H487.77H487.791H487.812H487.833H487.854H487.875H487.897H487.918L488.055 558.845C489.754 558.846 493.906 558.847 497.806 558.159C499.782 557.81 502.087 557.222 504.068 556.121C506.062 555.013 508.484 552.921 508.891 549.414C510.343 536.912 502.776 524.037 489.028 524.037C488.068 524.037 487.537 523.979 487.232 523.917C487.117 523.894 487.045 523.872 487.001 523.855C486.956 523.838 486.94 523.827 486.937 523.824L486.936 523.824C486.9 523.8 486.731 523.685 486.371 523.264C485.99 522.819 485.531 522.196 484.849 521.217C484.39 520.559 484.36 520.008 484.446 519.629C484.532 519.248 484.81 518.729 485.559 518.295C486.801 517.575 487.621 516.666 488.18 515.845H488.186H488.197H488.208H488.22H488.231H488.242H488.253H488.264H488.275H488.287H488.298H488.309H488.32H488.331H488.342H488.354H488.365H488.376H488.387H488.398H488.409H488.421H488.432H488.443H488.454H488.465H488.476H488.488H488.499H488.51H488.521H488.532H488.543H488.555H488.566H488.577H488.588H488.599H488.611H488.622H488.633H488.644H488.655H488.666H488.678H488.689H488.7H488.711H488.722H488.733H488.745H488.756H488.767H488.778H488.789H488.8H488.812H488.823H488.834H488.845H488.856H488.867H488.879H488.89H488.901H488.912H488.923H488.934H488.946H488.957H488.968H488.979H488.99H489.001H489.013H489.024H489.035H489.046H489.057H489.069H489.08H489.091H489.102H489.113H489.124H489.136H489.147H489.158H489.169H489.18H489.191H489.203H489.214H489.225H489.236H489.247H489.258H489.27H489.281H489.292H489.303H489.314H489.325H489.337H489.348H489.359H489.37H489.381H489.392H489.404H489.415H489.426H489.437H489.448H489.46H489.471H489.482H489.493H489.504H489.515H489.527H489.538H489.549H489.56H489.571H489.582H489.594H489.605H489.616H489.627H489.638H489.649H489.661H489.672H489.683H489.694H489.705H489.716H489.728H489.739H489.75H489.761H489.772H489.783H489.795H489.806H489.817H489.828H489.839H489.851H489.862H489.873H489.884H489.895H489.906H489.918H489.929H489.94H489.951H489.962H489.973H489.985H489.996H490.007H490.018H490.029H490.04H490.052H490.063H490.074H490.085H490.096H490.107H490.119H490.13H490.141H490.152H490.163H490.174H490.186H490.197H490.208H490.219H490.23H490.242H490.253H490.264H490.275H490.286H490.297H490.309H490.32H490.331H490.342H490.353H490.364H490.376H490.387H490.398H490.409H490.42H490.431H490.443H490.454H490.465H490.476H490.487H490.498H490.51H490.521H490.532H490.543H490.554H490.565H490.577H490.588H490.599H490.61H490.621H490.633H490.644H490.655H490.666H490.677H490.688H490.7H490.711H490.722H490.733H490.744H490.755H490.767H490.778H490.789H490.8H490.811H490.822H490.834H490.845H490.856H490.867H490.878H490.889H490.901H490.912H490.923H490.934H490.945H490.956H490.968H490.979H490.99H491.001H491.012H491.024H491.035H491.046H491.057H491.068H491.079H491.091H491.102H491.113H491.124H491.135H491.146H491.158H491.169H491.18H491.191H491.202H491.213H491.225H491.236H491.247H491.258H491.269H491.28H491.292H491.303H491.314H491.325H491.336H491.347H491.359H491.37H491.381H491.392H491.403H491.414H491.426H491.437H491.448H491.459H491.47H491.482H491.493H491.504H491.515H491.526H491.537H491.549H491.56H491.571H491.582H491.593H491.604H491.616H491.627H491.638H491.649H491.66H491.671H491.683H491.694H491.705H491.716H491.727H491.738H491.75H491.761H491.772H491.783H491.794H491.805H491.817H491.828H491.839H491.85H491.861H491.872H491.884H491.895H491.906H491.917H491.928H491.94H491.951H491.962H491.973H491.984H491.995H492.007H492.018H492.029H492.04H492.051H492.062H492.074H492.085H492.096H492.107H492.118H492.129H492.141H492.152H492.163H492.174H492.185H492.196H492.208H492.219H492.23H492.241H492.252H492.263H492.275H492.286H492.297H492.308H492.319H492.331H492.342H492.353H492.364H492.375H492.386H492.398H492.409H492.42H492.431H492.442C494.079 515.845 495.724 516.018 497.674 516.229L497.786 516.242L497.788 516.242C499.627 516.441 501.758 516.672 503.967 516.672C506.728 516.672 508.967 514.433 508.967 511.672C508.967 508.911 506.728 506.672 503.967 506.672C502.342 506.672 500.703 506.499 498.751 506.288L498.653 506.277L498.652 506.277C496.807 506.077 494.666 505.845 492.442 505.845H492.431H492.42H492.409H492.398H492.386H492.375H492.364H492.353H492.342H492.331H492.319H492.308H492.297H492.286H492.275H492.263H492.252H492.241H492.23H492.219H492.208H492.196H492.185H492.174H492.163H492.152H492.141H492.129H492.118H492.107H492.096H492.085H492.074H492.062H492.051H492.04H492.029H492.018H492.007H491.995H491.984H491.973H491.962H491.951H491.94H491.928H491.917H491.906H491.895H491.884H491.872H491.861H491.85H491.839H491.828H491.817H491.805H491.794H491.783H491.772H491.761H491.75H491.738H491.727H491.716H491.705H491.694H491.683H491.671H491.66H491.649H491.638H491.627H491.616H491.604H491.593H491.582H491.571H491.56H491.549H491.537H491.526H491.515H491.504H491.493H491.482H491.47H491.459H491.448H491.437H491.426H491.414H491.403H491.392H491.381H491.37H491.359H491.347H491.336H491.325H491.314H491.303H491.292H491.28H491.269H491.258H491.247H491.236H491.225H491.213H491.202H491.191H491.18H491.169H491.158H491.146H491.135H491.124H491.113H491.102H491.091H491.079H491.068H491.057H491.046H491.035H491.024H491.012H491.001H490.99H490.979H490.968H490.956H490.945H490.934H490.923H490.912H490.901H490.889H490.878H490.867H490.856H490.845H490.834H490.822H490.811H490.8H490.789H490.778H490.767H490.755H490.744H490.733H490.722H490.711H490.7H490.688H490.677H490.666H490.655H490.644H490.633H490.621H490.61H490.599H490.588H490.577H490.565H490.554H490.543H490.532H490.521H490.51H490.498H490.487H490.476H490.465H490.454H490.443H490.431H490.42H490.409H490.398H490.387H490.376H490.364H490.353H490.342H490.331H490.32H490.309H490.297H490.286H490.275H490.264H490.253H490.242H490.23H490.219H490.208H490.197H490.186H490.174H490.163H490.152H490.141H490.13H490.119H490.107H490.096H490.085H490.074H490.063H490.052H490.04H490.029H490.018H490.007H489.996H489.985H489.973H489.962H489.951H489.94H489.929H489.918H489.906H489.895H489.884H489.873H489.862H489.851H489.839H489.828H489.817H489.806H489.795H489.783H489.772H489.761H489.75H489.739H489.728H489.716H489.705H489.694H489.683H489.672H489.661H489.649H489.638H489.627H489.616H489.605H489.594H489.582H489.571H489.56H489.549H489.538H489.527H489.515H489.504H489.493H489.482H489.471H489.46H489.448H489.437H489.426H489.415H489.404H489.392H489.381H489.37H489.359H489.348H489.337H489.325H489.314H489.303H489.292H489.281H489.27H489.258H489.247H489.236H489.225H489.214H489.203H489.191H489.18H489.169H489.158H489.147H489.136H489.124H489.113H489.102H489.091H489.08H489.069H489.057H489.046H489.035H489.024H489.013H489.001H488.99H488.979H488.968H488.957H488.946H488.934H488.923H488.912H488.901H488.89H488.879H488.867H488.856H488.845H488.834H488.823H488.812H488.8H488.789H488.778H488.767H488.756H488.745H488.733H488.722H488.711H488.7H488.689H488.678H488.666H488.655H488.644H488.633H488.622H488.611H488.599H488.588H488.577H488.566H488.555H488.543H488.532H488.521H488.51H488.499H488.488H488.476H488.465H488.454H488.443H488.432H488.421H488.409H488.398H488.387H488.376H488.365H488.354H488.342H488.331H488.32H488.309H488.298H488.287H488.275H488.264H488.253H488.242H488.231H488.22H488.208H488.197H488.186H488.175H488.164H488.152H488.141H488.13H488.119H488.108H488.097H488.085H488.074H488.063H488.052H488.041H488.03H488.018H488.007H487.996H487.985H487.974H487.963H487.951H487.94H487.929H487.918H487.907H487.896H487.884H487.873H487.862H487.851H487.84H487.829H487.817H487.806H487.795H487.784H487.773H487.762H487.75H487.739H487.728H487.717H487.706H487.694H487.683H487.672H487.661H487.65H487.639H487.627H487.616H487.605H487.594H487.583H487.572H487.56H487.549H487.538H487.527H487.516H487.505H487.493H487.482H487.471H487.46H487.449H487.438H487.426H487.415H487.404H487.393H487.382H487.371H487.359H487.348H487.337H487.326H487.315H487.303H487.292H487.281H487.27H487.259H487.248H487.236H487.225H487.214H487.203H487.192H487.181H487.169H487.158H487.147H487.136H487.125H487.114H487.102H487.091H487.08H487.069H487.058H487.047H487.035H487.024H487.013H487.002H486.991H486.98H486.968H486.957H486.946H486.935H486.924H486.912H486.901H486.89H486.879H486.868H486.857H486.845H486.834H486.823H486.812H486.801H486.79H486.778H486.767H486.756H486.745H486.734H486.723ZM488.971 514.486C488.979 514.471 488.977 514.476 488.965 514.497L488.971 514.486ZM463.076 547.845C465.837 547.845 468.076 550.084 468.076 552.845V553.845C468.076 556.607 465.837 558.845 463.076 558.845C460.315 558.845 458.076 556.607 458.076 553.845V552.845C458.076 550.084 460.315 547.845 463.076 547.845ZM461 511.716C461.481 508.997 459.666 506.402 456.947 505.922C454.228 505.441 451.633 507.255 451.152 509.974C450.463 513.871 450.172 517.776 449.902 521.398L449.868 521.862C449.742 523.541 449.713 525.304 449.726 527.06C449.382 526.411 449.028 525.762 448.663 525.114L448.663 525.113C448.661 525.11 448.651 525.092 448.632 525.055C448.611 525.015 448.583 524.963 448.549 524.895C448.479 524.758 448.393 524.586 448.288 524.373C448.223 524.24 448.149 524.09 448.069 523.926L448.068 523.924C447.903 523.589 447.712 523.2 447.513 522.799C446.91 521.587 446.13 520.06 445.269 518.573C444.436 517.133 443.4 515.504 442.25 514.203C441.68 513.558 440.915 512.801 439.963 512.204C439.035 511.622 437.444 510.895 435.468 511.189C433.391 511.498 432.032 512.763 431.278 513.859C430.578 514.878 430.232 515.963 430.04 516.754C429.65 518.357 429.571 520.165 429.569 521.633C429.568 523.177 429.658 524.721 429.741 525.92C429.764 526.257 429.792 526.626 429.815 526.943C429.83 527.145 429.843 527.326 429.853 527.463C429.882 527.881 429.889 528.046 429.891 528.075L429.891 528.079C429.891 528.684 429.965 530.059 430.054 531.695L430.054 531.698C430.082 532.222 430.112 532.772 430.141 533.331C430.27 535.801 430.412 538.823 430.473 541.769C430.536 544.755 430.51 547.499 430.336 549.465C430.288 550.001 430.235 550.408 430.186 550.703C429.25 551.863 428.841 553.428 429.209 554.992C429.842 557.68 432.535 559.345 435.223 558.712C437.138 558.261 438.215 556.963 438.701 556.222C439.21 555.447 439.493 554.652 439.662 554.082C440.007 552.919 440.187 551.582 440.296 550.351C440.521 547.818 440.535 544.628 440.471 541.561C440.407 538.456 440.258 535.309 440.128 532.81C440.086 532.007 440.047 531.298 440.014 530.687L439.982 530.077C442.709 534.929 444.745 539.826 446.357 545.143C446.311 544.991 446.844 546.973 447.534 548.468C447.72 548.871 447.989 549.403 448.351 549.927C448.611 550.305 449.382 551.384 450.782 552.028C451.603 552.406 452.722 552.668 453.989 552.431C455.24 552.198 456.164 551.568 456.769 550.976C457.818 549.948 458.237 548.716 458.413 548.14C459.811 543.568 459.949 538.753 459.891 534.481C459.873 533.133 459.837 531.86 459.803 530.641V530.64C459.722 527.743 459.65 525.154 459.84 522.608L459.861 522.325C460.142 518.563 460.4 515.106 461 511.716ZM430.065 551.27C430.065 551.27 430.067 551.261 430.073 551.246C430.068 551.262 430.065 551.27 430.065 551.27ZM439.781 519.03C439.781 519.03 439.778 519.04 439.772 519.058C439.777 519.039 439.781 519.03 439.781 519.03Z" fill="black"/>
</svg>
